<svg width="90" height="90" viewBox="0 0 90 90" fill="none" xmlns="http://www.w3.org/2000/svg">
<path d="M76 85H14V83.56C14 72.7632 19.1477 68.8423 24.5027 64.7636C29.8608 60.6825 35.4263 56.4434 36.25 45H28.0362C26.9133 42.92 26.7529 40.6 26.7529 38.28L35.4153 33C31.4851 29.88 29.4799 24.92 29.4799 20.44C29.4799 11.96 36.3778 5.08 45.0401 5C53.6223 5.08 60.5201 11.96 60.5201 20.44C60.5201 24.92 58.5149 29.88 54.5847 33L63.2471 38.28C63.2471 40.6 63.0867 42.92 61.9638 45H53.75C54.5737 56.4434 60.1392 60.6825 65.4973 64.7636C70.8523 68.8423 76 72.7632 76 83.56V85Z" fill="#E7E6E5"/>
<path fill-rule="evenodd" clip-rule="evenodd" d="M53.75 45H37C38.1342 46.1876 39.2598 47.3931 40.3865 48.5998C48.9439 57.7648 57.5637 66.9965 70.5095 68.9583C68.9759 67.4132 67.2477 66.0968 65.4973 64.7636C60.1392 60.6825 54.5737 56.4434 53.75 45Z" fill="#BEBDB9"/>
<path fill-rule="evenodd" clip-rule="evenodd" d="M50.2915 5.94336C55.7164 9.3254 59.929 19.077 54.9686 26.1075C51.2491 31.3668 44 33 44 33H54.5847C58.5149 29.88 60.5201 24.92 60.5201 20.44C60.5201 13.7837 56.2701 8.11316 50.2915 5.94336Z" fill="#BEBDB9"/>
<path fill-rule="evenodd" clip-rule="evenodd" d="M14 83.5599V84.9999C16.7214 76.0063 20.7023 73.1196 27.4165 68.2509C27.9057 67.8962 28.4093 67.5309 28.9281 67.1521C33.2084 64.0199 34.0745 58.1263 34.6401 52.8404C32.4323 58.7238 28.4123 61.7857 24.5027 64.7636C19.1477 68.8423 14 72.7631 14 83.5599Z" fill="#F1F1F1"/>
<path fill-rule="evenodd" clip-rule="evenodd" d="M36.25 45.0001H53.75C53.75 45.0001 53.75 45 53.75 45H61.9638C63.0867 42.92 63.2471 40.6 63.2471 38.28L54.5847 33H52.8118C52.8154 33.0036 52.8259 33.013 52.8426 33.0279C53.335 33.4682 59.2187 38.7288 53 42.7501H27.1795C27.3709 43.5224 27.6452 44.2758 28.0362 45H36.25C36.25 45 36.25 45.0001 36.25 45.0001Z" fill="#BEBDB9"/>
<path fill-rule="evenodd" clip-rule="evenodd" d="M26.7589 38.9988C26.7546 38.7594 26.7529 38.5197 26.7529 38.28L35.415 33.0002L33.5291 38.9893L26.7589 38.9988Z" fill="#F1F1F1"/>
<path fill-rule="evenodd" clip-rule="evenodd" d="M30.0208 24.5453C29.661 23.1755 29.4799 21.7861 29.4799 20.44C29.4799 12.1926 36.0045 5.4587 44.3313 5.02183C44.3994 5.02078 44.4677 5.02018 44.5361 5.02002H44.7261C39.3987 5.66755 31.2506 11.9083 30.0208 24.5453Z" fill="#F1F1F1"/>
</svg>
