<svg width="90" height="90" viewBox="0 0 90 90" fill="none" xmlns="http://www.w3.org/2000/svg">
<path d="M77.45 30.4C75.78 28.75 73.8 27.45 71.61 26.58C69.43 25.71 67.09 25.29 64.75 25.35C60.19 25.22 55.68 26.37 51.75 28.69L50.14 21.67H56.58V11.85H49.96V5H40.02V11.67H33.4V21.56H39.84L38.23 28.58C34.29 26.3 29.78 25.18 25.23 25.35C22.89 25.31 20.57 25.75 18.4 26.62C16.23 27.5 14.26 28.8 12.6 30.45C9.25001 33.99 7.42001 38.71 7.51001 43.59C7.51001 51.08 12.3 55.87 16.93 60.43C19.95 63.16 22.54 66.32 24.62 69.82C16.93 71.83 16.93 77.03 16.93 83V84.99H73.07V83C73.07 77.04 73.07 71.77 65.41 69.88C67.48 66.37 70.06 63.18 73.07 60.43C77.72 55.81 82.5 51.03 82.5 43.59C82.61 38.7 80.81 33.96 77.46 30.4H77.45ZM66.04 45.53C65.53 49.08 60.29 52.2 56.78 56.67C55.01 56.56 53.97 56.46 52.43 56.4V42.65C52.43 42.65 56.85 39.49 60.4 39.49C60.43 39.49 66.88 39.71 66.04 45.53ZM29.55 39.49C33.11 39.49 37.52 42.65 37.52 42.65V56.4C36.02 56.4 34.94 56.55 33.17 56.67C29.66 52.19 24.43 49.08 23.91 45.53C23.14 39.72 29.55 39.49 29.55 39.49Z" fill="#E7E6E5"/>
<path fill-rule="evenodd" clip-rule="evenodd" d="M76.9253 29.9023C77.1034 30.0645 77.2783 30.2304 77.4499 30.4H77.4599C80.8099 33.96 82.6099 38.7 82.4999 43.59C82.4999 51.03 77.7199 55.81 73.0699 60.43C70.0976 63.1455 67.5446 66.2902 65.4879 69.7483C63.3878 69.1852 61.0641 69.0099 58.8399 69.0099H58.6904L75.1701 52.4903C83.2687 44.3817 77.935 32.0465 76.9253 29.9023Z" fill="#BEBDB9"/>
<path fill-rule="evenodd" clip-rule="evenodd" d="M49.9599 5V5.15V5.16L48.4599 6.66H41.6799V13.31H35.0599V20.06L33.5699 21.56H33.3999V11.67H40.0199V5H49.9599ZM56.59 13.3099H48.47L49.97 11.6699H56.59V13.3099ZM26.34 25.3498H26.2787L26.34 25.3398V25.3498ZM26.2787 25.3498C12.7801 27.5686 6.20609 40.3685 10.23 52.7098C8.46 49.9998 7.51001 46.8298 7.51001 43.5898C7.42001 38.7098 9.25001 33.9898 12.6 30.4498C14.26 28.7998 16.23 27.4998 18.4 26.6198C20.57 25.7498 22.89 25.3098 25.23 25.3498H26.2787ZM58.84 69.0098C64.2819 69.0098 70.3201 70.0594 72.22 75.2698H72.21C70.48 74.4698 64.48 72.8598 44.98 72.8598C25.48 72.8598 19.48 74.5098 17.75 75.2698C19.7331 69.9661 26.1444 69.0098 31.23 69.0098H58.84Z" fill="#F8F8F8"/>
</svg>
