<svg width="90" height="90" viewBox="0 0 90 90" fill="none" xmlns="http://www.w3.org/2000/svg">
<path d="M56.6901 22.82L53.0501 29.35C51.3401 32.66 49.7001 36.26 48.7201 39.99C47.6201 43.43 46.4901 51.25 46.4901 51.25L40.6501 51.29C41.2501 45.96 42.2901 39.99 44.5201 34.33L52.1401 18.61C52.9229 17.1479 53.4301 15.3107 53.4301 13.64C53.4301 8.87 49.4801 5 44.6401 5C39.8001 5 35.8501 8.87 35.8501 13.64C35.8501 15.86 36.7701 18.89 36.7701 18.89C36.7701 18.89 23.6701 30.3 23.6701 47.23C23.6701 58.83 29.3701 67.45 31.7101 70.24H58.1501C60.5201 67.38 66.1401 58.81 66.1401 47.28C66.1401 35.75 60.5601 27.53 56.6801 22.82H56.6901Z" fill="#E7E6E5"/>
<path d="M59.9201 69.9H29.9101C14.9401 69.9 15.0001 79.97 15.0001 79.97V85H74.8201V79.97C74.8201 79.97 74.8901 69.9 59.9101 69.9H59.9201Z" fill="#E7E6E5"/>
<path d="M45.1608 5.015C44.9885 5.00505 44.8149 5 44.6401 5C39.8001 5 35.8501 8.87 35.8501 13.64C35.8501 14.5251 35.9964 15.539 36.1723 16.4383C37.0523 10.513 41.789 6.01417 45.1608 5.015Z" fill="#F1F1F1"/>
<path d="M36.7701 18.89C36.7701 18.89 23.6701 30.3 23.6701 47.23C23.6701 51.03 24.3101 54.46 25.2101 57.52C25.1901 47.74 27.3201 33.48 38.4901 19.5C38.4901 19.5 37.7401 19.24 36.7701 18.89Z" fill="#F1F1F1"/>
<path d="M16.4101 75.58C18.0901 72.87 21.7701 69.9 29.9001 69.9H59.9101C67.8001 69.9 71.4901 72.69 73.2401 75.34C71.3101 74.63 64.9401 73.18 45.1101 73.18C22.5001 73.18 17.3901 75.07 16.4101 75.59V75.58Z" fill="#F1F1F1"/>
<path d="M60.2455 27.7012C63.2889 32.4874 66.1401 39.038 66.1401 47.28C66.1401 58.3843 60.9275 66.7431 58.4255 69.9H42.6154C46.7915 67.942 70.172 55.5552 60.2455 27.7012Z" fill="#BEBDB9"/>
<path d="M40.6501 51.29C36.2809 42.1574 41.3339 32.7381 45.8109 24.3926C49.3981 17.7058 52.6154 11.7084 50.3201 7.09999C50.3237 7.08682 50.3274 7.07368 50.331 7.06058C52.2253 8.64563 53.4301 11.0055 53.4301 13.64C53.4301 14.36 53.3201 15.04 53.1501 15.69C52.9601 16.66 52.6701 17.62 52.1401 18.61H52.1301L44.5201 34.33C42.2901 39.99 41.2501 45.96 40.6501 51.29Z" fill="#BEBDB9"/>
</svg>
