<svg width="90" height="90" viewBox="0 0 90 90" fill="none" xmlns="http://www.w3.org/2000/svg">
<path d="M66.9505 69.1281L62.357 31.2997C67.3107 29.4083 69.3823 26.7963 69.7426 22.6532L71.0035 9.68351C69.7426 9.05304 67.9412 8.51263 66.2299 8.0623C64.0683 7.52189 62.8074 7.25169 61.1861 7.07155L57.6735 18.0598H53.7105L51.729 5.63047C49.4774 5.2702 47.1356 5 44.8839 5C42.6322 5 40.2905 5.2702 38.0388 5.63047L36.1474 18.0598H32.0943L28.5817 7.07155C25.8797 7.07155 22.1869 8.24243 18.9445 9.50338L20.0253 22.6532C20.3855 26.5261 21.8266 29.1381 27.5009 31.2997L22.9975 69.1281H66.9505Z" fill="#E7E6E5"/>
<path d="M36.1474 18.0598C36.5977 16.5286 39.1196 6.98149 44.8839 5C42.6322 5 40.2905 5.2702 38.0388 5.63047L36.1474 18.0598Z" fill="#F8F8F8"/>
<path d="M22.758 28.6538C21.1171 20.6586 21.9548 9.77971 25.5024 7.44275C23.394 7.88721 21.0723 8.6759 18.9445 9.50337L20.0253 22.6531C20.0258 22.6591 20.0264 22.6651 20.0269 22.6711C20.2545 25.0925 20.9073 27.0205 22.758 28.6538Z" fill="#F8F8F8"/>
<path d="M61.244 7.07804C61.2248 7.07602 61.2055 7.07393 61.1861 7.07178L57.6735 18.06C58.6195 16.2539 61.7376 10.6501 65.4675 7.874C63.7745 7.46217 62.6383 7.23565 61.244 7.07804Z" fill="#F8F8F8"/>
<path d="M62.357 31.2997L66.9494 69.119L66.9504 69.1281H66.9488C64.7877 68.858 62.6266 68.6779 60.4656 68.5879C60.0178 66.5039 59.6054 64.4693 59.205 62.4941C55.4179 43.8101 52.7066 30.4337 31.2837 30.7595C38.7593 29.2284 49.8376 29.0482 56.1423 29.9489C63.4481 28.4343 65.6907 16.1947 66.9588 8.25854C68.4176 8.66111 69.8771 9.12816 70.9555 9.65968C70.9715 9.66769 70.9874 9.6757 71.0035 9.68372L69.7426 22.6532C69.7415 22.6654 69.7404 22.6777 69.7393 22.6897C69.3701 26.8117 67.2962 29.4139 62.357 31.2997Z" fill="#BEBDB9"/>
<path d="M23.0126 69.058C12.2892 70.5891 13.0101 76.4435 13.0101 82.9284V84.9999H76.9899V82.9284C76.9899 76.4435 77.7108 70.6792 66.9874 69.058C62.3016 68.3374 57.0751 68.5176 45 68.5176C35.5382 68.5176 26.0764 68.6076 23.0126 69.058Z" fill="#E7E6E5"/>
<path d="M76.5289 75.5428C75.7179 72.3905 73.375 70.0487 66.977 69.058C62.2912 68.3374 57.0647 68.5176 44.9896 68.5176C35.5278 68.5176 26.066 68.6076 23.0022 69.058C16.6944 70.0487 14.2613 72.3905 13.4503 75.4528C16.6944 73.111 23.1824 72.5706 44.9896 72.5706C66.8869 72.5706 73.0146 73.2011 76.5289 75.5428Z" fill="#F8F8F8"/>
</svg>
