<svg width="90" height="90" fill="none" xmlns="http://www.w3.org/2000/svg"><path d="M5 13a8 8 0 0 1 8-8h48.03a12 12 0 0 1 8.485 3.515l11.97 11.97A12 12 0 0 1 85 28.971V77a8 8 0 0 1-8 8H13a8 8 0 0 1-8-8V13z" fill="#BEBDB9"/><path d="M5 12a8 8 0 0 1 8-8h48.686a8 8 0 0 1 5.657 2.343l15.314 15.314A8 8 0 0 1 85 27.314V74a8 8 0 0 1-8 8H13a8 8 0 0 1-8-8V12z" fill="#E7E6E5"/><path d="M5 32v42a8 8 0 0 0 8 8h62l-60.552-1.781a8 8 0 0 1-7.758-7.663L5 32z" fill="#F8F8F8"/><path d="m62 4-2.711 11.947c-1.086 4.781 2.347 9.405 7.238 9.75L85 27a6.689 6.689 0 0 0-1.96-4.73L66.73 5.96A6.688 6.688 0 0 0 62 3.999z" fill="#DAD8D6"/><path d="M62 4v15a8 8 0 0 0 8 8h15a6.689 6.689 0 0 0-1.959-4.73L66.73 5.96A6.689 6.689 0 0 0 62 3.999z" fill="#F1F1F1"/><path d="M62 4v15a8 8 0 0 0 8 8h15l-14.318-1.694a8 8 0 0 1-7.006-7.013L62 4z" fill="#fff"/><path d="M40.604 31H17v8h23.604v-8zM40.604 47H17v8h23.604v-8z" fill="#BEBDB9"/><path d="M53.312 15H17v8h36.312v-8z" fill="#666564"/><path d="M73 63H17v8h56v-8z" fill="#BEBDB9"/><path d="M73 31H49v24h24V31z" fill="#45753C"/><path d="M61 31H49v12h12V31zM73 43H61v12h12V43z" fill="#81B64C"/></svg>