<svg width="90" height="90" viewBox="0 0 90 90" fill="none" xmlns="http://www.w3.org/2000/svg">
<path d="M66.4099 49.99C63.7999 47.47 63.6699 43.6 58.1299 43.57C53.8599 43.55 50.0699 39.66 47.9399 37.43L45.8299 34.99C45.0099 35.98 42.7399 39.13 43.7399 42.64C44.6677 45.8724 47.2552 48.2089 49.7899 50.25C53.8599 53.55 60.9899 59.25 61.7599 67.06L62.0399 72.6H23.3699C23.3699 69.26 22.7399 67.06 22.7399 67.06C22.0499 63.71 18.1699 52.41 18.1699 46.28C18.1699 23.2 33.7499 13.06 47.6799 12.12L54.7999 5.01001C55.8099 5.01001 56.8499 6.08001 57.1299 7.26001L57.9399 11.14C58.7599 13.15 60.1199 14.51 62.2199 16.25C64.3199 17.99 64.8599 19.63 65.3299 20.82C66.9899 25.05 67.1199 27.29 69.9999 31.48L76.4499 40.55C78.1099 42.6 77.8899 45.41 76.1099 46.91C73.7499 48.91 66.9799 50.58 66.3899 50L66.4099 49.99Z" fill="#4B4847"/>
<path d="M27.8499 69.49H58.9399C74.4499 69.49 74.3799 79.83 74.3799 79.83V85H12.4099V79.83C12.4099 79.83 12.3399 69.49 27.8499 69.49Z" fill="#4B4847"/>
<path d="M76.4599 40.53L70.0099 31.46C67.1299 27.27 66.9999 25.03 65.3399 20.8C64.8799 19.61 64.3399 17.97 62.2299 16.23C60.1299 14.49 58.7699 13.13 57.9499 11.12L57.1399 7.23998C56.9299 6.35998 56.2999 5.53999 55.5799 5.17999C55.4199 5.14999 55.2699 5.10999 55.0999 5.10999C55.0999 5.10999 52.0999 12.23 56.5299 14.98C65.0399 20.27 63.4899 26.75 65.9599 30.04C67.1799 31.67 75.7999 42.31 77.4699 44.37C77.6899 43.09 77.4199 41.69 76.4699 40.52L76.4599 40.53Z" fill="#666564"/>
<path opacity="0.5" fill-rule="evenodd" clip-rule="evenodd" d="M47.7537 12.0461C47.9145 12.02 48 12.0087 48 12.0087C47.9315 12.0072 47.8632 12.0059 47.795 12.0048L47.7537 12.0461ZM23.2026 69.8499C23.016 68.1464 22.7399 67.0598 22.7399 67.0598C22.5474 66.1249 22.1064 64.5709 21.5706 62.683C20.1865 57.8056 18.1699 50.6991 18.1699 46.2798C18.1699 23.5197 33.321 13.3434 47.0998 12.1642C42.799 13.0074 24.5517 17.7646 24.5517 37.7826C24.5517 47.1554 28.3638 53.2095 31.9203 58.8578C34.1043 62.3263 36.1919 65.6417 37.2414 69.4787C34.6153 69.2407 23.2026 69.8499 23.2026 69.8499ZM56.5999 43.39L56.6136 43.393L56.5999 43.4V43.39ZM56.6136 43.393C57.6214 42.8755 58.4716 42.3478 59.204 41.8933C61.8936 40.2241 62.9937 39.5414 64.4699 43.97C65.3665 46.6753 66.4941 48.2926 67.2034 49.31C67.4038 49.5976 67.5709 49.8373 67.6899 50.04C67.0299 50.12 66.5499 50.11 66.4099 49.98C65.6315 49.2284 65.0736 48.3567 64.527 47.5025C63.2411 45.493 62.0175 43.5811 58.1299 43.56C57.6147 43.56 57.1092 43.5011 56.6136 43.393ZM41.2499 32.57C41.2799 30.89 41.4799 27.29 42.4799 29.21C43.4799 31.13 45.9599 35.02 45.9599 35.02C45.9599 35.02 45.9799 35.09 46.0099 35.19L45.8299 34.99C45.0399 35.94 42.9299 38.91 43.6799 42.27C42.2099 38.41 41.2299 34.11 41.2499 32.57Z" fill="#312E2B"/>
<path d="M72.9199 75.33C71.1799 72.54 67.3699 69.49 58.9399 69.49H27.8399C19.6599 69.49 15.8399 72.36 14.0299 75.08C16.0299 74.35 22.6299 72.86 43.1799 72.86C66.6099 72.86 71.8999 74.8 72.9199 75.33Z" fill="#666564"/>
</svg>
