<svg width="90" height="90" viewBox="0 0 90 90" fill="none" xmlns="http://www.w3.org/2000/svg">
<path d="M74.0626 85V82.8853C74.0626 76.3161 74.0626 70.6918 64.705 68.982L77.8417 37.216C81.3508 36.766 84.5 33.1665 84.5 29.387C84.5 25.1575 80.9909 21.4679 76.492 21.4679C72.2631 21.4679 68.574 25.1575 68.574 29.387C68.574 31.0067 69.3838 32.5366 69.9237 33.4364L60.926 42.9753L59.8462 20.838C62.9055 19.8481 65.1549 16.7885 65.1549 13.279C65.1549 9.31946 62.0957 5 56.787 5C52.0182 5 48.4191 9.04949 48.4191 13.279C48.4191 15.7087 49.5888 18.0484 51.4784 19.5782L45 38.3858L38.5216 19.5782C40.4112 18.0484 41.5809 15.7087 41.5809 13.279C41.5809 8.77953 37.9818 5 33.213 5C27.9043 5 24.8451 9.13948 24.8451 13.369C24.8451 16.8785 27.0945 19.8481 30.1538 20.838L29.074 42.9753L20.0763 33.4364C20.6162 32.5366 21.426 31.0067 21.426 29.387C21.426 25.1575 17.7369 21.4679 13.508 21.4679C9.09909 21.4679 5.5 25.0675 5.5 29.387C5.5 33.1665 8.6492 36.766 12.1583 37.216L25.385 68.982C15.9374 70.6918 15.9374 76.4061 15.9374 82.8853V85H74.0626Z" fill="#4B4847"/>
<path d="M78.5615 21.7379C78.1116 21.6479 77.1219 21.4679 76.492 21.4679C72.2631 21.4679 68.574 25.1575 68.574 29.387C68.574 30.6468 69.0239 31.8166 69.4738 32.6265C69.8337 25.6974 74.3225 22.2778 78.5615 21.7379ZM25.9248 17.3285C26.6446 10.1294 30.2437 6.16985 33.213 5C27.9043 5 24.8451 9.13948 24.8451 13.369C24.8451 14.7188 25.205 16.0686 25.9248 17.3285ZM49.4089 17.1485C49.8588 10.4893 53.9977 6.43982 56.787 5C52.0182 5 48.4191 9.04949 48.4191 13.279C48.4191 14.6288 48.779 15.9786 49.4089 17.1485ZM9.36902 36.2261C6.12984 31.1867 7.92938 24.2576 13.508 21.4679C9.09909 21.4679 5.5 25.0675 5.5 29.387C5.5 32.2666 7.20957 34.6963 9.36902 36.2261Z" fill="#666564"/>
<path d="M17.2871 73.9312C18.5468 71.5915 20.8862 69.7917 25.385 68.9818C28.3543 68.8018 36.2723 68.4419 45.09 68.4419C56.0673 68.4419 60.3862 68.4419 64.7051 68.9818C69.2939 69.7917 71.6333 71.5915 72.803 73.9312C71.7233 73.4813 70.3736 73.2113 68.754 72.9413C63.5354 72.4914 58.3167 72.4914 45.09 72.4914C34.4727 72.4914 24.8452 72.7614 21.3361 72.9413C19.8064 73.2113 18.4568 73.4813 17.2871 73.9312Z" fill="#666564"/>
<path opacity="0.5" d="M84.5 29.3869C84.5 27.5871 83.8702 25.8773 82.7005 24.4375C84.5 31.8166 77.8417 34.1563 74.9624 35.6861C74.9624 35.6861 68.664 48.3745 60.1162 57.7333C51.0285 67.5421 45 68.442 45 68.442C55.9772 68.442 60.3861 68.442 64.705 68.9819L77.8417 37.2159C81.3508 36.766 84.5 33.1664 84.5 29.3869Z" fill="#312E2B"/>
</svg>
